<svg version="1.1" xmlns="http://www.w3.org/2000/svg" xmlns:xlink="http://www.w3.org/1999/xlink" width="48" height="48"><defs><linearGradient x1="13.27732" y1="13.27797" x2="58.00414" y2="58.0035" gradientUnits="userSpaceOnUse" id="color-1"><stop offset="0.41" stop-color="#000000" stop-opacity="0.12"></stop><stop offset="1" stop-color="#000000" stop-opacity="0"></stop></linearGradient><filter id="dropshadow-base"><feColorMatrix type="matrix" values="0 0 0 0 0  0 0 0 0 0  0 0 0 0 0  0 0 0 .8 0"></feColorMatrix> <feOffset dx="0" dy="1"></feOffset> <feGaussianBlur stdDeviation="1"></feGaussianBlur> <feComposite in="SourceGraphic"></feComposite></filter><filter id="dropshadow-banner" x="-10%" y="-10%" width="120%" height="130%"><feColorMatrix type="matrix" values="0 0 0 0 0  0 0 0 0 0  0 0 0 0 0  0 0 0 .4 0"></feColorMatrix> <feOffset dx="0" dy="1"></feOffset> <feGaussianBlur stdDeviation="0.5"></feGaussianBlur> <feComposite in="SourceGraphic"></feComposite></filter></defs><g fill="none" fill-rule="nonzero" stroke="none" stroke-width="none" stroke-linecap="butt" stroke-linejoin="miter" stroke-miterlimit="10" stroke-dasharray="" stroke-dashoffset="0" font-family="none" font-weight="none" font-size="none" text-anchor="none" style="mix-blend-mode: normal"><path d="M7,43c-1.10457,0 -2,-0.89543 -2,-2v-34c0,-1.10457 0.89543,-2 2,-2h34c1.10457,0 2,0.89543 2,2v34c0,1.10457 -0.89543,2 -2,2z" id="base 1 5 1" fill="#6cdee6" stroke-width="1"></path><path d="M28.38537,15.71528c-0.00028,-0.26916 0.21767,-0.4876 0.48687,-0.48788c0.00032,0 0.00069,0 0.00101,0c0.2994,0.00011 0.59091,0.03398 0.87093,0.09798l-1.21545,-1.21545c-0.08821,-0.08821 -0.14276,-0.21007 -0.14274,-0.34467c0.00004,-0.26912 0.21817,-0.48729 0.48729,-0.48729c1.61534,-0.00027 3.07785,0.65438 4.13644,1.71297l9.99027,9.99027v16.01879c0,1.10457 -0.89543,2 -2,2h-18.30272l-8.84896,-8.84896c-0.35279,-0.35279 -0.57099,-0.84016 -0.57099,-1.37848v-17.54496c0,-1.0767 0.87283,-1.94947 1.94947,-1.94947h9.74742c0.53833,0 1.02569,0.21821 1.37848,0.57099l2.08442,2.08442c-0.03303,-0.06564 -0.05166,-0.13978 -0.05174,-0.21826z" fill="url(#color-1)" stroke-width="1"></path><path transform="translate(-1.73444,-1.73444) scale(1.07227,1.07227)" d="M27.23247,18.96713l1.61438,1.34532c0.35357,-0.12451 0.60698,-0.46148 0.60698,-0.85764c0,-0.50204 -0.40698,-0.90902 -0.90902,-0.90902c-0.25102,0.00026 -0.45474,-0.20304 -0.455,-0.45406c-0.00026,-0.25102 0.203,-0.45474 0.45406,-0.455c0.0003,0 0.00064,0 0.00094,0c1.00409,0 1.81808,0.814 1.81808,1.81808c0,0.61196 -0.30236,1.15331 -0.76584,1.48281l0.71407,0.59506c0.58788,-0.50022 0.9608,-1.2455 0.9608,-2.07787c0,-1.50613 -1.22098,-2.72711 -2.72711,-2.72711c-0.25102,0.00026 -0.45474,-0.20304 -0.455,-0.45406c-0.00026,-0.25102 0.203,-0.45474 0.45406,-0.455c0.0003,0 0.00064,0 0.00094,0c2.00817,0.00077 3.63553,1.62936 3.63472,3.63753c-0.0004,1.05255 -0.448,2.00053 -1.16311,2.66426l0.12762,0.10635c0.19228,0.16023 0.3662,0.33877 0.51982,0.53225c0.87742,-0.82906 1.42473,-2.00377 1.42418,-3.30618c-0.00102,-2.50868 -2.03446,-4.54217 -4.54319,-4.54323c-0.25102,-0.00004 -0.45449,-0.20355 -0.45445,-0.45457c0.00004,-0.25098 0.20347,-0.45445 0.45445,-0.45445c3.01226,-0.00051 5.45464,2.44102 5.45515,5.45327c0.00028,1.63404 -0.71805,3.10039 -1.85627,4.10021c0.12052,0.27354 0.2077,0.56281 0.25809,0.8618c0.00037,0.00211 0.00073,0.00423 0.00108,0.00635l0.00004,0.00017l0.15123,0.90749c0.00015,0.00089 0.00029,0.00177 0.00043,0.00266l0.53544,3.21255l0.37655,0.37655c0.34097,0.34097 0.53251,0.80339 0.53251,1.28557v1.97404c0,1.00409 -0.814,1.81808 -1.81808,1.81808l-0.57988,0c-0.00244,0.00003 -0.00489,0.00004 -0.00734,0.00004h-3.36086c-0.70995,0 -1.39849,-0.20763 -1.98445,-0.58926c-0.33234,0.3622 -0.80963,0.58926 -1.33993,0.58926h-9.09047c-1.00409,0 -1.81808,-0.814 -1.81808,-1.81808v-16.36247c0,-1.00413 0.814,-1.81808 1.81808,-1.81808h9.09047c1.00409,0 1.81808,0.814 1.81808,1.81808v2.85017c0.1823,0.07078 0.35334,0.17103 0.50584,0.29811z" fill="none" stroke-width="0"></path><g id="Capa_1 2" stroke-width="1"><path d="M23.02483,24.30288l2.92419,-2.92419l3.89895,3.89895l-2.92419,2.92419z" fill="#002a56"></path><path d="M28.46953,26.52042c0.53833,-0.53833 0.53833,-1.41115 0,-1.94947l-1.92179,-1.92179c-0.33062,-0.33062 -0.86666,-0.33062 -1.19727,0v0l-0.4352,0.4352c-1.14199,1.14199 -2.99346,1.14199 -4.13544,0v0v0c-0.47303,-0.47303 -0.47303,-1.23995 0,-1.71294l2.64886,-2.64886c0.36562,-0.36562 0.86145,-0.57099 1.37848,-0.57099h1.41088c0.45604,0 0.89768,0.15987 1.24803,0.45183l4.19425,3.49523c0.71734,0.59777 1.19631,1.43317 1.34983,2.35425l0.7368,4.42069l0.40377,0.40377c0.36562,0.36562 0.57099,0.86145 0.57099,1.37848v2.1167c0,1.07665 -0.87282,1.94947 -1.94947,1.94947v0h-4.2334c-1.03407,0 -2.02578,-0.41076 -2.75696,-1.14199l-4.70644,-4.70639l3.8989,-3.8989l1.54571,1.54571c0.53833,0.53833 1.41115,0.53833 1.94947,0z" fill="#294d70"></path><path d="M26.61834,19.21237c0.2454,0.11062 0.53398,0.00133 0.6446,-0.24403c0.11025,-0.24458 0.0021,-0.53225 -0.24193,-0.64364c-0.14187,-0.06415 -0.29091,-0.11103 -0.44393,-0.13968l-0.00018,-0.00005c-0.0042,-0.00078 -0.0085,-0.00155 -0.01275,-0.00233l-0.00023,-0.00005c-0.00082,-0.00014 -0.0016,-0.00032 -0.00238,-0.00041l-0.00041,-0.00005c-0.00329,-0.00059 -0.00663,-0.00119 -0.00991,-0.00178l-0.00032,-0.00005l-0.00233,-0.00037l-0.00041,-0.00014l-0.00224,-0.00037l-0.00037,-0.00005c-0.00334,-0.00059 -0.00653,-0.00114 -0.00987,-0.00164l-0.00055,-0.00005c-0.00073,-0.00018 -0.00151,-0.00032 -0.00219,-0.00041l-0.00046,-0.00005c-0.00329,-0.00055 -0.00653,-0.00105 -0.00987,-0.0016l-0.00037,-0.00005c-0.00073,-0.00005 -0.00142,-0.00018 -0.00215,-0.00032l-0.00078,-0.00014l-0.00201,-0.00037l-0.00064,-0.00005c-0.00242,-0.00041 -0.0048,-0.00078 -0.00726,-0.00114h-0.00014l-0.00219,-0.00037l-0.00064,-0.00005l-0.00201,-0.00037l-0.00082,-0.00014c-0.00064,-0.00005 -0.00137,-0.00018 -0.0021,-0.00032l-0.00037,-0.00005c-0.00224,-0.00032 -0.00452,-0.00064 -0.00676,-0.00096l-0.00101,-0.00018c-0.00059,-0.00005 -0.00119,-0.00014 -0.00178,-0.00023c-0.00037,-0.00009 -0.00073,-0.00009 -0.00105,-0.00014c-0.00059,-0.00014 -0.00123,-0.00018 -0.00183,-0.00032l-0.00101,-0.00014c-0.00059,-0.00014 -0.00123,-0.00018 -0.00183,-0.00023l-0.00055,-0.00014l-0.00416,-0.00055l-0.00073,-0.00014l-0.00178,-0.00023c-0.00037,-0.00005 -0.00073,-0.00009 -0.00105,-0.00014c-0.00064,-0.00014 -0.00123,-0.00018 -0.00183,-0.00032c-0.00037,0 -0.00073,-0.00005 -0.00105,-0.00014l-0.00174,-0.00023l-0.00123,-0.00018c-0.00201,-0.00023 -0.00407,-0.00046 -0.00608,-0.00078l-0.00101,-0.00014l-0.00178,-0.00023l-0.00119,-0.00014c-0.00059,-0.00005 -0.00114,-0.00018 -0.00164,-0.00023l-0.00123,-0.00014c-0.00055,-0.00009 -0.0011,-0.00018 -0.00164,-0.00023h-0.00128c-0.00119,-0.00014 -0.00238,-0.00032 -0.00356,-0.00041l-0.00091,-0.00014l-0.00178,-0.00023c-0.00037,0 -0.00078,-0.00005 -0.00114,-0.00014l-0.00174,-0.00018l-0.00114,-0.00018l-0.00178,-0.00018l-0.00119,-0.00018l-0.00164,-0.00018c-0.00037,0 -0.00078,-0.00005 -0.00114,-0.00014l-0.0032,-0.00037c-0.00041,-0.00005 -0.00078,-0.00009 -0.00119,-0.00014l-0.00164,-0.00018l-0.00123,-0.00018l-0.00164,-0.00018l-0.00133,-0.00014l-0.0016,-0.00018l-0.00101,-0.00014c-0.00123,-0.00014 -0.00251,-0.00023 -0.0037,-0.00041l-0.00082,-0.00005l-0.0016,-0.00018c-0.00046,-0.00009 -0.00091,-0.00009 -0.00137,-0.00014l-0.00155,-0.00018c-0.00046,-0.00005 -0.00091,-0.00009 -0.00137,-0.00014l-0.00155,-0.00018l-0.00142,-0.00018c-0.0005,0 -0.00105,-0.00005 -0.00155,-0.00014c-0.00073,-0.00005 -0.00142,-0.00014 -0.00215,-0.00023l-0.00183,-0.00018c-0.00055,-0.00009 -0.00105,-0.00009 -0.0016,-0.00014l-0.00151,-0.00018l-0.00151,-0.00014l-0.00151,-0.00018c-0.00046,0 -0.00096,-0.00005 -0.00142,-0.00014l-0.00151,-0.00014l-0.00178,-0.00018l-0.00114,-0.00014c-0.00096,-0.00005 -0.00183,-0.00018 -0.00279,-0.00023l-0.00123,-0.00014c-0.00059,-0.00009 -0.00114,-0.00009 -0.00174,-0.00014c-0.00041,-0.00009 -0.00087,-0.00009 -0.00133,-0.00014l-0.00164,-0.00018l-0.00137,-0.00014l-0.00174,-0.00014l-0.00119,-0.00014c-0.00082,-0.00005 -0.00164,-0.00014 -0.00242,-0.00023l-0.00137,-0.00005l-0.00201,-0.00018l-0.00123,-0.00014l-0.0016,-0.00014l-0.00142,-0.00014c-0.00059,-0.00005 -0.00114,-0.00014 -0.00164,-0.00014l-0.00123,-0.00014l-0.0021,-0.00018l-0.00091,-0.00005l-0.00288,-0.00018l-0.00105,-0.00014c-0.00059,-0.00005 -0.00123,-0.00005 -0.00192,-0.00014l-0.00133,-0.00014c-0.00055,0 -0.0011,-0.00005 -0.00164,-0.00014l-0.00133,-0.00005l-0.00178,-0.00018c-0.00041,0 -0.00078,0 -0.00119,-0.00005l-0.00251,-0.00018l-0.00096,-0.00005l-0.00238,-0.00018c-0.00037,0 -0.00078,0 -0.00114,-0.00005l-0.00192,-0.00014l-0.00119,-0.00005c-0.00059,-0.00005 -0.00119,-0.00014 -0.00178,-0.00014l-0.00123,-0.00014c-0.00064,0 -0.00133,-0.00005 -0.00196,-0.00014l-0.00101,-0.00005l-0.00288,-0.00018l-0.00101,-0.00005c-0.00064,0 -0.00133,-0.00005 -0.00196,-0.00014c-0.00041,0 -0.00078,0 -0.00119,-0.00005l-0.00178,-0.00005l-0.00133,-0.00014l-0.00183,-0.00005c-0.00037,-0.00005 -0.00073,-0.00009 -0.00105,-0.00005l-0.00233,-0.00018c-0.00037,0 -0.00078,0 -0.00114,-0.00005c-0.00082,0 -0.0016,-0.00005 -0.00242,-0.00014c-0.00041,0 -0.00078,0 -0.00119,-0.00005l-0.00178,-0.00005c-0.00041,-0.00005 -0.00082,-0.00009 -0.00123,-0.00005l-0.00183,-0.00014c-0.00041,0 -0.00078,0 -0.00119,-0.00005c-0.00064,0 -0.00133,-0.00005 -0.00201,-0.00005l-0.00096,-0.00005c-0.00096,-0.00005 -0.00196,-0.00014 -0.00292,-0.00014l-0.00073,-0.00005c-0.00078,-0.00005 -0.00155,-0.00005 -0.00233,-0.00014h-0.00101l-0.00196,-0.00014c-0.00041,0 -0.00078,0 -0.00119,-0.00005l-0.00183,-0.00005c-0.00041,0 -0.00078,0 -0.00119,-0.00005c-0.00078,0 -0.0016,-0.00005 -0.00242,-0.00005l-0.00046,-0.00005c-0.00101,0 -0.00196,-0.00005 -0.00297,-0.00014h-0.00096c-0.00064,-0.00005 -0.00137,-0.00005 -0.0021,-0.00005c-0.00037,-0.00005 -0.00073,-0.00009 -0.00105,-0.00005l-0.00192,-0.00005l-0.00114,-0.00005c-0.00073,0 -0.00151,-0.00005 -0.00219,-0.00005h-0.00082c-0.00096,-0.00005 -0.00196,-0.00005 -0.00297,-0.00014h-0.00059c-0.00078,-0.00005 -0.00155,-0.00005 -0.00238,-0.00005c-0.00037,-0.00005 -0.00073,-0.00009 -0.00114,-0.00005l-0.00183,-0.00005h-0.00123c-0.00059,-0.00005 -0.00123,-0.00005 -0.00183,-0.00005c-0.00037,0 -0.00078,0 -0.00114,-0.00005c-0.00078,0 -0.00151,0 -0.00224,-0.00005h-0.00073c-0.00101,0 -0.00201,-0.00005 -0.00297,-0.00005h-0.00082c-0.00073,-0.00005 -0.00151,-0.00005 -0.00215,-0.00005h-0.00114c-0.00064,-0.00005 -0.00133,-0.00005 -0.00201,-0.00005h-0.0011c-0.00073,-0.00005 -0.00142,-0.00005 -0.00215,-0.00005h-0.00091c-0.00101,-0.00005 -0.00196,-0.00005 -0.00297,-0.00005h-0.00046c-0.00082,0 -0.00164,-0.00005 -0.00251,-0.00005h-0.00302l-0.00114,-0.00005h-0.00302c-0.00078,0 -0.0016,0 -0.00242,-0.00005h-0.00768c-0.00064,0 -0.00123,0 -0.00192,-0.00005h-1.42499l-0.00174,0.00005h-0.00704c-0.00059,0 -0.00114,0 -0.00174,0.00005h-0.00407c-0.00064,0 -0.00137,0 -0.00201,0.00005h-0.00388c-0.00091,0.00005 -0.00183,0.00005 -0.00279,0.00005h-0.00096c-0.00064,0.00005 -0.00133,0.00005 -0.00196,0.00005h-0.00101l-0.00174,0.00005h-0.00133l-0.0016,0.00005h-0.00123l-0.00164,0.00005h-0.00119l-0.00192,0.00005h-0.00096c-0.00064,0.00005 -0.00123,0.00005 -0.00192,0.00005h-0.00101c-0.00078,0.00005 -0.00151,0.00005 -0.00219,0.00005l-0.00073,0.00005c-0.00096,0 -0.00192,0.00005 -0.00288,0.00005h-0.00055c-0.00078,0.00005 -0.0016,0.00005 -0.00238,0.00005l-0.00096,0.00005l-0.00192,0.00005h-0.00114c-0.00059,0.00005 -0.00119,0.00009 -0.00178,0.00005l-0.00101,0.00005c-0.00073,0 -0.00133,0.00005 -0.00196,0.00005l-0.00101,0.00005c-0.00059,0 -0.00133,0 -0.00192,0.00005h-0.00096l-0.00196,0.00014h-0.00101c-0.00078,0.00005 -0.00151,0.00005 -0.00219,0.00014h-0.00059l-0.00882,0.00037h-0.00046c-0.00082,0.00005 -0.00164,0.00014 -0.00256,0.00014l-0.00041,0.00005c-0.00082,0 -0.00164,0.00005 -0.00242,0.00005l-0.00073,0.00005c-0.00073,0.00005 -0.00142,0.00005 -0.00219,0.00014h-0.00078c-0.00064,0.00005 -0.00137,0.00014 -0.0021,0.00014l-0.00082,0.00005c-0.00078,0 -0.00151,0.00005 -0.00219,0.00014h-0.00073l-0.0027,0.00018h-0.00014c-0.00302,0.00014 -0.00603,0.00032 -0.00905,0.00046l-0.00288,0.00018h-0.00041l-0.00256,0.00018h-0.00041l-0.00251,0.00018h-0.00055l-0.00251,0.00018h-0.00037l-0.0027,0.00018l-0.00032,0.00005c-0.00589,0.00037 -0.01183,0.00078 -0.01777,0.00119l-0.00037,0.00005l-0.0027,0.00018l-0.00018,0.00005l-0.00292,0.00018c-0.17915,0.01389 -0.35552,0.0525 -0.52407,0.11468c-0.25239,0.09357 -0.3811,0.37407 -0.28748,0.62642c0.09344,0.25194 0.37315,0.38074 0.62532,0.2879c0.10788,-0.03984 0.22201,-0.06022 0.33701,-0.06013h1.41092c0.13826,0.00032 0.27474,0.02965 0.40052,0.08649z" fill="#0f3860"></path><path d="M24.97421,34.72204h-9.74742c-1.07665,0 -1.94947,-0.87282 -1.94947,-1.94947v-17.54495c0,-1.0767 0.87282,-1.94947 1.94947,-1.94947h9.74742c1.07665,0 1.94947,0.87282 1.94947,1.94947v17.54495c0,1.07665 -0.87282,1.94947 -1.94947,1.94947z" fill="#446483"></path><path d="M13.76497,15.22743v0c0.26916,0 0.48738,0.21822 0.48738,0.48738v16.57038c0,0.26916 -0.21822,0.48738 -0.48738,0.48738v0c-0.26916,0 -0.48738,-0.21822 -0.48738,-0.48738v-16.57038c0,-0.26916 0.21822,-0.48738 0.48738,-0.48738z" fill="#2c5073"></path><path d="M24.97453,33.74728h-8.77275c-0.53833,0 -0.97471,-0.43639 -0.97471,-0.97471v-17.54532c0,-0.53833 0.43639,-0.97471 0.97471,-0.97471h8.77275c0.53833,0 0.97471,0.43639 0.97471,0.97471v17.54532c0,0.53833 -0.43639,0.97471 -0.97471,0.97471z" fill="#0f3860"></path><path d="M17.17636,17.17704h6.82314c0.53833,0 0.97471,0.43639 0.97471,0.97471v10.72191c0,0.53833 -0.43639,0.97471 -0.97471,0.97471h-6.82314c-0.53833,0 -0.97471,-0.43639 -0.97471,-0.97471v-10.72191c0,-0.53833 0.43639,-0.97471 0.97471,-0.97471z" fill="#83ff36"></path><path d="M18.15139,18.15162h4.87353c0.53833,0 0.97471,0.43639 0.97471,0.97471v0.00005c0,0.53833 -0.43639,0.97471 -0.97471,0.97471h-4.87353c-0.53833,0 -0.97471,-0.43639 -0.97471,-0.97471v-0.00005c0,-0.53833 0.43639,-0.97471 0.97471,-0.97471z" fill="#c4ff9f"></path><g fill="#002a56"><path d="M20.58825,15.22743h1.94943c0.26916,0 0.48738,0.21822 0.48738,0.48738v0c0,0.26916 -0.21822,0.48738 -0.48738,0.48738h-1.94943c-0.26916,0 -0.48738,-0.21822 -0.48738,-0.48738v0c0,-0.26921 0.21822,-0.48738 0.48738,-0.48738z"></path><path d="M18.15139,15.71495c0,-0.26917 0.21821,-0.48738 0.48738,-0.48738c0.26917,0 0.48738,0.21821 0.48738,0.48738c0,0.26917 -0.21821,0.48738 -0.48738,0.48738c-0.26917,0 -0.48738,-0.21821 -0.48738,-0.48738z"></path></g><path d="M13.76497,17.17704h0.97471c0.26916,0 0.48738,0.21822 0.48738,0.48738v2.92401c0,0.26916 -0.21822,0.48738 -0.48738,0.48738h-0.97471c-0.26916,0 -0.48738,-0.21822 -0.48738,-0.48738v-2.92401c0,-0.26916 0.21822,-0.48738 0.48738,-0.48738z" fill="#5e7994"></path><path d="M13.76497,17.17704v0c0.26916,0 0.48738,0.21822 0.48738,0.48738v2.92401c0,0.26916 -0.21822,0.48738 -0.48738,0.48738v0c-0.26916,0 -0.48738,-0.21822 -0.48738,-0.48738v-2.92401c0,-0.26916 0.21822,-0.48738 0.48738,-0.48738z" fill="#4c6a88"></path><path d="M13.76497,23.02542h0.97471c0.26916,0 0.48738,0.21822 0.48738,0.48738v2.92401c0,0.26916 -0.21822,0.48738 -0.48738,0.48738h-0.97471c-0.26916,0 -0.48738,-0.21822 -0.48738,-0.48738v-2.92401c0,-0.26916 0.21822,-0.48738 0.48738,-0.48738z" fill="#5e7994"></path><path d="M13.76497,23.02542v0c0.26916,0 0.48738,0.21822 0.48738,0.48738v2.92401c0,0.26916 -0.21822,0.48738 -0.48738,0.48738v0c-0.26916,0 -0.48738,-0.21822 -0.48738,-0.48738v-2.92401c0,-0.26916 0.21822,-0.48738 0.48738,-0.48738z" fill="#4c6a88"></path><path d="M15.71445,33.74715h8.77239c0.26916,0 0.48738,0.21822 0.48738,0.48738v0c0,0.26916 -0.21822,0.48738 -0.48738,0.48738h-8.77239c-0.26916,0 -0.48738,-0.21822 -0.48738,-0.48738v0c0,-0.26921 0.21822,-0.48738 0.48738,-0.48738z" fill="#2c5073"></path><path d="M20.10055,30.82296h0.97476c0.53833,0 0.97471,0.43639 0.97471,0.97471v0.00005c0,0.53833 -0.43639,0.97471 -0.97471,0.97471h-0.97476c-0.53833,0 -0.97471,-0.43639 -0.97471,-0.97471v-0.00005c0,-0.53833 0.43639,-0.97471 0.97471,-0.97471z" fill="#002a56"></path><path d="M32.61247,33.58755c-0.4501,-0.4501 -0.4501,-1.17986 0,-1.62996v0l0.15973,-0.15973c0.53833,-0.53833 0.53833,-1.41115 0,-1.94947c-0.53833,-0.53833 -1.41115,-0.53833 -1.94947,0l-2.43681,2.43681c-0.26916,0.26916 -0.70555,0.26916 -0.97471,0c-0.26916,-0.26916 -0.26916,-0.70555 0,-0.97471v0c0.80749,-0.80749 0.80749,-2.1167 0,-2.92419c-0.80749,-0.80749 -2.1167,-0.80749 -2.92419,0c-0.26916,0.26916 -0.70555,0.26916 -0.97471,0c-0.26916,-0.26916 -0.26916,-0.70555 0,-0.97471v0c0.26916,-0.26912 0.26921,-0.70546 0.00009,-0.97462c-0.00005,-0.00005 -0.00009,-0.00009 -0.00009,-0.00009l-2.43681,2.43681l3.15621,3.15621l1.55019,1.55019c0.73118,0.73118 1.7229,1.14199 2.75696,1.14199h3.60374c0.36703,0 0.66457,-0.29754 0.66457,-0.66457c-0.00005,-0.17627 -0.07009,-0.34533 -0.19469,-0.46993z" fill="#456584"></path><path d="M32.2109,25.58628c0.04432,0.26551 0.29548,0.44484 0.56099,0.40052c0.23471,-0.03916 0.40687,-0.24211 0.40719,-0.48007c-0.00005,-0.02705 -0.00228,-0.05405 -0.00672,-0.08074l-0.16216,-0.97307l-0.00005,-0.00018c-0.01691,-0.10139 -0.05222,-0.19697 -0.07694,-0.29607c-0.04784,-0.19514 -0.11066,-0.38627 -0.18802,-0.57172c-0.03422,-0.08115 -0.071,-0.16097 -0.11043,-0.23942c-0.24431,-0.47271 -0.57479,-0.89562 -0.97444,-1.24689l-3.09334,-2.57772l-0.01097,-0.00909c-0.20698,-0.17207 -0.51425,-0.14374 -0.68632,0.06324c-0.17207,0.20698 -0.14374,0.51425 0.06324,0.68632l3.43451,2.84574c0.01416,0.01179 0.60133,1.02726 0.6812,1.50605z" fill="#0f3860"></path><path d="M25.94911,31.79781l2.92419,-2.92419l-4.93055,-4.93055c-1.05563,-1.05563 -2.79224,-1.21139 -3.90165,-0.21241c-1.13303,1.0173 -1.22679,2.76048 -0.20949,3.89351c0.03299,0.03674 0.06698,0.0726 0.10189,0.10751l4.29856,4.29856c0.4898,0.4898 1.07395,0.87497 1.71705,1.13226z" fill="#294d70"></path><path d="M28.00646,29.74046c-0.05328,-1.13628 -1.01762,-2.01417 -2.15385,-1.9609c-0.51511,0.02417 -1.0024,0.24065 -1.3656,0.60672c-0.26916,0.26916 -0.70555,0.26916 -0.97471,0c-0.26916,-0.26916 -0.26916,-0.70555 0,-0.97471c0.26916,-0.26912 0.26921,-0.70546 0.00009,-0.97462c-0.00005,-0.00005 -0.00009,-0.00009 -0.00009,-0.00009l-1.94947,-1.94947c-0.26916,-0.26916 -0.70555,-0.26916 -0.97471,0c-0.26916,0.26916 -0.70555,0.26916 -0.97471,0c-0.03116,-0.03724 -0.05807,-0.07781 -0.08032,-0.12094c-0.65657,1.08031 -0.49131,2.4692 0.40043,3.36529l4.29851,4.29851c0.4898,0.4898 1.07395,0.87502 1.71709,1.13226z" fill="#456584"></path><path d="M20.70636,24.60563v0c-0.80749,0.80749 -0.80749,2.1167 0,2.92419v0l0.08361,0.08361c0.38065,0.38065 0.99783,0.38065 1.37848,0v0l1.54571,-1.54571c0.38065,-0.38065 0.38065,-0.99783 0,-1.37848v0l-0.08361,-0.08361c-0.80753,-0.80753 -2.1167,-0.80753 -2.92419,0v0z" fill="#f6edff"></path><path d="M27.8984,21.56319v2.92401c0,0.26916 -0.21822,0.48738 -0.48738,0.48738v0c-0.26916,0 -0.48738,-0.21822 -0.48738,-0.48738v-2.92401c0,-0.26916 0.21822,-0.48738 0.48738,-0.48738v0c0.26916,0 0.48738,0.21817 0.48738,0.48738z" fill="#002a56"></path><g fill="#21b950"><path d="M28.38592,20.58843c-0.00014,-0.26903 0.21781,-0.4872 0.48679,-0.48738c0.00018,0 0.00037,0 0.00055,0c0.53833,0 0.97471,-0.43639 0.97471,-0.97471c0,-0.53833 -0.43639,-0.97471 -0.97471,-0.97471c-0.26916,0.00027 -0.48761,-0.21772 -0.48788,-0.48688c-0.00027,-0.26916 0.21767,-0.48761 0.48688,-0.48788c0.00032,0 0.00069,0 0.00101,0c1.07665,0 1.94947,0.87282 1.94947,1.94947c0,1.07665 -0.87282,1.94947 -1.94947,1.94947v0c-0.26903,0.00014 -0.4872,-0.21781 -0.48738,-0.48679c0.00005,-0.00023 0.00005,-0.00041 0.00005,-0.00059z"></path><path d="M28.38592,22.53791c-0.00014,-0.26903 0.21781,-0.4872 0.48679,-0.48738c0.00018,0 0.00037,0 0.00055,0c1.61498,0 2.92419,-1.30921 2.92419,-2.92419c0,-1.61498 -1.30921,-2.92419 -2.92419,-2.92419c-0.26916,0.00027 -0.48761,-0.21772 -0.48788,-0.48688c-0.00027,-0.26916 0.21767,-0.48761 0.48688,-0.48788c0.00032,0 0.00069,0 0.00101,0c2.1533,0.00082 3.89826,1.74711 3.8974,3.90041c-0.00082,2.15216 -1.74528,3.89657 -3.8974,3.8974c-0.26903,0.00014 -0.4872,-0.21781 -0.48738,-0.48679c0.00005,-0.00014 0.00005,-0.00032 0.00005,-0.0005z"></path><path d="M28.38592,24.48733c-0.00014,-0.26903 0.21781,-0.4872 0.48679,-0.48738c0.00018,0 0.00037,0 0.00055,0c2.69163,-0.00114 4.87271,-2.1841 4.87156,-4.87572c-0.0011,-2.68998 -2.18149,-4.87042 -4.87152,-4.87156c-0.26916,-0.00005 -0.48733,-0.21826 -0.48729,-0.48743c0.00005,-0.26912 0.21817,-0.48729 0.48729,-0.48729c3.22995,-0.00055 5.84884,2.61742 5.84938,5.84737c0.00055,3.22995 -2.61738,5.84884 -5.84737,5.84938c-0.00069,0 -0.00133,0 -0.00201,0c-0.26903,0.00014 -0.4872,-0.21781 -0.48738,-0.48679c0,-0.00018 0,-0.00041 0,-0.00059z"></path></g><g fill="#000000" font-family="Roboto, sans-serif" font-weight="400" font-size="14" text-anchor="start"></g><g fill="#000000" font-family="Roboto, sans-serif" font-weight="400" font-size="14" text-anchor="start"></g><g fill="#000000" font-family="Roboto, sans-serif" font-weight="400" font-size="14" text-anchor="start"></g><g fill="#000000" font-family="Roboto, sans-serif" font-weight="400" font-size="14" text-anchor="start"></g><g fill="#000000" font-family="Roboto, sans-serif" font-weight="400" font-size="14" text-anchor="start"></g><g fill="#000000" font-family="Roboto, sans-serif" font-weight="400" font-size="14" text-anchor="start"></g><g fill="#000000" font-family="Roboto, sans-serif" font-weight="400" font-size="14" text-anchor="start"></g><g fill="#000000" font-family="Roboto, sans-serif" font-weight="400" font-size="14" text-anchor="start"></g><g fill="#000000" font-family="Roboto, sans-serif" font-weight="400" font-size="14" text-anchor="start"></g><g fill="#000000" font-family="Roboto, sans-serif" font-weight="400" font-size="14" text-anchor="start"></g><g fill="#000000" font-family="Roboto, sans-serif" font-weight="400" font-size="14" text-anchor="start"></g><g fill="#000000" font-family="Roboto, sans-serif" font-weight="400" font-size="14" text-anchor="start"></g><g fill="#000000" font-family="Roboto, sans-serif" font-weight="400" font-size="14" text-anchor="start"></g><g fill="#000000" font-family="Roboto, sans-serif" font-weight="400" font-size="14" text-anchor="start"></g><g fill="#000000" font-family="Roboto, sans-serif" font-weight="400" font-size="14" text-anchor="start"></g></g><path d="M2,24c0,-12.15026 9.84974,-22 22,-22c12.15026,0 22,9.84974 22,22c0,12.15026 -9.84974,22 -22,22c-12.15026,0 -22,-9.84974 -22,-22z" id="base 1 1 1" fill="none" stroke-width="1"></path><g id="Capa_1 1 1" fill="#000000" stroke-width="1" font-family="Roboto, sans-serif" font-weight="400" font-size="14" text-anchor="start"><g></g><g></g><g></g><g></g><g></g><g></g><g></g><g></g><g></g><g></g><g></g><g></g><g></g><g></g><g></g><g></g><g></g></g><path d="M13,36v-12h30v12z" id="banner 1" fill="#404041" stroke-width="1" filter="url(#dropshadow-banner)"></path><text x="28" y="33" fill="#ffffff" stroke-width="1" font-family="sans-serif" font-weight="bold" font-size="8" text-anchor="middle">DEV</text><rect x="2" y="2" width="44" height="22" fill="none" stroke-width="1"></rect><path d="M2,24v-22h44v22z" fill="none" stroke-width="1"></path><path d="M2,24v-22h44v22z" fill="none" stroke-width="1"></path><path d="M2,24v-22h44v22z" fill="none" stroke-width="1"></path><path d="M2,24v-22h44v22z" fill="none" stroke-width="1"></path></g></svg>